<svg xmlns="http://www.w3.org/2000/svg" xmlns:xlink="http://www.w3.org/1999/xlink" width="200" zoomAndPan="magnify" viewBox="0 0 150 37.5" height="50" preserveAspectRatio="xMidYMid meet" version="1.0"><defs><g/><clipPath id="6af10fff0c"><path d="M 49.65625 5.613281 L 75 5.613281 L 75 28.050781 L 49.65625 28.050781 Z M 49.65625 5.613281 " clip-rule="nonzero"/></clipPath><clipPath id="8061a372e8"><path d="M 55.855469 5.613281 L 75 5.613281 L 68.796875 28.050781 L 49.65625 28.050781 Z M 55.855469 5.613281 " clip-rule="nonzero"/></clipPath><clipPath id="084de662c5"><path d="M 28.402344 5.613281 L 53.46875 5.613281 L 53.46875 28.050781 L 28.402344 28.050781 Z M 28.402344 5.613281 " clip-rule="nonzero"/></clipPath><clipPath id="71c828934b"><path d="M 34.820312 5.613281 L 53.445312 5.613281 L 47.027344 28.050781 L 28.402344 28.050781 Z M 34.820312 5.613281 " clip-rule="nonzero"/></clipPath><clipPath id="e569fed3f2"><path d="M 10.414062 5.613281 L 32.246094 5.613281 L 32.246094 28.128906 L 10.414062 28.128906 Z M 10.414062 5.613281 " clip-rule="nonzero"/></clipPath><clipPath id="a891e7acd3"><path d="M 16.828125 5.613281 L 32.246094 5.613281 L 25.828125 28.050781 L 10.414062 28.050781 Z M 16.828125 5.613281 " clip-rule="nonzero"/></clipPath></defs><g clip-path="url(#6af10fff0c)"><g clip-path="url(#8061a372e8)"><path fill="#ff7d29" d="M 49.65625 5.613281 L 74.984375 5.613281 L 74.984375 28.050781 L 49.65625 28.050781 Z M 49.65625 5.613281 " fill-opacity="1" fill-rule="nonzero"/></g></g><g clip-path="url(#084de662c5)"><g clip-path="url(#71c828934b)"><path fill="#ffbf78" d="M 28.402344 5.613281 L 53.46875 5.613281 L 53.46875 28.050781 L 28.402344 28.050781 Z M 28.402344 5.613281 " fill-opacity="1" fill-rule="nonzero"/></g></g><g clip-path="url(#e569fed3f2)"><g clip-path="url(#a891e7acd3)"><path fill="#ffeea9" d="M 10.414062 5.613281 L 32.246094 5.613281 L 32.246094 28.042969 L 10.414062 28.042969 Z M 10.414062 5.613281 " fill-opacity="1" fill-rule="nonzero"/></g></g><g fill="#000000" fill-opacity="1"><g transform="translate(75.052421, 24.343257)"><g><path d="M 3.625 -14.46875 C 2.03125 -14.46875 0.71875 -13.171875 0.71875 -11.578125 L 0.71875 0 L 3.625 0 L 3.625 -11.578125 L 6.515625 -11.578125 L 6.515625 0 L 9.40625 0 L 9.40625 -11.578125 L 12.296875 -11.578125 L 12.296875 0 L 15.203125 0 L 15.203125 -11.578125 C 15.203125 -13.171875 13.890625 -14.46875 12.296875 -14.46875 Z M 3.625 -14.46875 "/></g></g></g><g fill="#000000" fill-opacity="1"><g transform="translate(90.966288, 24.343257)"><g><path d="M 15.203125 0 L 15.203125 -2.890625 L 9.40625 -2.890625 L 9.40625 -11.578125 L 15.203125 -11.578125 L 15.203125 -14.46875 L 0.71875 -14.46875 L 0.71875 -11.578125 L 6.515625 -11.578125 L 6.515625 -2.890625 L 0.71875 -2.890625 L 0.71875 0 Z M 15.203125 0 "/></g></g></g><g fill="#000000" fill-opacity="1"><g transform="translate(106.880155, 24.343257)"><g><path d="M 15.203125 0 L 15.203125 -2.890625 L 3.625 -2.890625 L 3.625 -11.578125 L 15.203125 -11.578125 L 15.203125 -14.46875 L 3.625 -14.46875 C 2.03125 -14.46875 0.71875 -13.171875 0.71875 -11.578125 L 0.71875 -2.890625 C 0.71875 -1.296875 2.03125 0 3.625 0 Z M 15.203125 0 "/></g></g></g><g fill="#000000" fill-opacity="1"><g transform="translate(122.794021, 24.343257)"><g><path d="M 12.296875 0 C 13.921875 0 15.203125 -1.328125 15.203125 -2.890625 L 15.203125 -11.578125 C 15.203125 -13.171875 13.890625 -14.46875 12.296875 -14.46875 L 3.625 -14.46875 C 2.03125 -14.46875 0.71875 -13.171875 0.71875 -11.578125 L 0.71875 -2.890625 C 0.71875 -1.296875 2.03125 0 3.625 0 Z M 3.625 -11.578125 L 12.296875 -11.578125 L 12.296875 -2.890625 L 3.625 -2.890625 Z M 3.625 -11.578125 "/></g></g></g></svg>