<svg xmlns="http://www.w3.org/2000/svg" xmlns:xlink="http://www.w3.org/1999/xlink" width="200" zoomAndPan="magnify" viewBox="0 0 150 74.999997" height="100" preserveAspectRatio="xMidYMid meet" version="1.0"><defs><clipPath id="a977706905"><path d="M 89.535156 5.453125 L 145.050781 5.453125 L 145.050781 69.640625 L 89.535156 69.640625 Z M 89.535156 5.453125 " clip-rule="nonzero"/></clipPath><clipPath id="8c980ac46e"><path d="M 103.121094 5.453125 L 145.050781 5.453125 L 131.464844 69.546875 L 89.535156 69.546875 Z M 103.121094 5.453125 " clip-rule="nonzero"/></clipPath><clipPath id="b632e79bad"><path d="M 42.988281 5.453125 L 97.835938 5.453125 L 97.835938 69.726562 L 42.988281 69.726562 Z M 42.988281 5.453125 " clip-rule="nonzero"/></clipPath><clipPath id="e972d063f9"><path d="M 57.042969 5.453125 L 97.835938 5.453125 L 83.777344 69.546875 L 42.988281 69.546875 Z M 57.042969 5.453125 " clip-rule="nonzero"/></clipPath><clipPath id="281d7429ac"><path d="M 3.582031 5.453125 L 51.402344 5.453125 L 51.402344 69.710938 L 3.582031 69.710938 Z M 3.582031 5.453125 " clip-rule="nonzero"/></clipPath><clipPath id="31a9ce1fd3"><path d="M 17.640625 5.453125 L 51.402344 5.453125 L 37.347656 69.546875 L 3.582031 69.546875 Z M 17.640625 5.453125 " clip-rule="nonzero"/></clipPath></defs><g clip-path="url(#a977706905)"><g clip-path="url(#8c980ac46e)"><path fill="#ff7d29" d="M 89.535156 5.453125 L 145.050781 5.453125 L 145.050781 69.640625 L 89.535156 69.640625 Z M 89.535156 5.453125 " fill-opacity="1" fill-rule="nonzero"/></g></g><g clip-path="url(#b632e79bad)"><g clip-path="url(#e972d063f9)"><path fill="#ffbf78" d="M 42.988281 5.453125 L 97.835938 5.453125 L 97.835938 69.511719 L 42.988281 69.511719 Z M 42.988281 5.453125 " fill-opacity="1" fill-rule="nonzero"/></g></g><g clip-path="url(#281d7429ac)"><g clip-path="url(#31a9ce1fd3)"><path fill="#ffeea9" d="M 3.582031 5.453125 L 51.402344 5.453125 L 51.402344 69.523438 L 3.582031 69.523438 Z M 3.582031 5.453125 " fill-opacity="1" fill-rule="nonzero"/></g></g></svg>